<svg width="96" height="81" viewBox="0 0 96 81" fill="none" xmlns="http://www.w3.org/2000/svg">
<path d="M41.75 63.875L56.5 69.375C56.5 73.7083 54.625 77.0417 50.875 79.375C49.0417 80.4583 47.0833 81 45 81H17.25C13.0833 81 9.83333 79.2083 7.5 75.625C6.33333 73.7083 5.75 71.625 5.75 69.375V22.375C5.75 14.7083 9.375 8.83333 16.625 4.75C21.2083 2.16667 26.2083 0.875 31.625 0.875C41.2083 0.875 48.2083 3.58333 52.625 9C53.5417 10.1667 54.2917 11.375 54.875 12.625L40.125 17.625C40.125 13.125 37.75 10.4583 33 9.625C32.1667 9.45833 31.2917 9.375 30.375 9.375C27.0417 9.375 24.375 10.7917 22.375 13.625C21.2083 15.2917 20.625 17.0833 20.625 19V64.25C20.625 66.9167 21.8333 68.7083 24.25 69.625C24.9167 69.875 25.625 70 26.375 70H35.875C38.625 70 40.4583 68.7083 41.375 66.125C41.625 65.375 41.75 64.625 41.75 63.875Z" fill="#229799"/>
<path d="M45.876 53H39.972V29.096H45.876C49.44 29.096 51.312 30.968 51.312 34.604V47.168C51.312 51.128 49.44 53 45.876 53ZM43.14 50.084H45.66C47.604 50.084 48.108 48.644 48.108 46.268V35.756C48.108 33.452 47.604 32.012 45.48 32.012H43.14V50.084ZM64.2042 47.024V47.816C64.2042 51.416 62.4402 53.216 58.7322 53.216C55.0962 53.216 53.3682 51.488 53.3682 47.816V40.904C53.3682 37.268 55.0962 35.504 58.7682 35.504C62.4402 35.504 64.2042 37.268 64.2042 40.904V45.188H56.3922V47.888C56.3922 49.616 57.1842 50.48 58.7322 50.48C60.3522 50.48 61.1442 49.616 61.1442 47.888V47.024H64.2042ZM61.1442 42.884V40.832C61.1442 39.104 60.3882 38.24 58.7682 38.24C57.1842 38.24 56.3922 39.104 56.3922 40.832V42.884H61.1442ZM69.4017 53H66.3057V35.72H69.1857L69.2937 38.672H69.4377C70.1217 36.656 71.3817 35.504 73.1817 35.504C73.6857 35.504 74.1537 35.612 74.6217 35.864V38.708C74.2977 38.492 73.7217 38.348 73.0017 38.348C71.0937 38.348 69.9777 39.32 69.4017 42.38V53ZM94.7221 53H91.5901V40.688C91.5901 38.996 90.8341 38.24 89.4661 38.24C88.0621 38.24 87.4861 38.96 86.9821 40.76V53H83.9941V40.688C83.9941 38.996 83.2381 38.24 81.8701 38.24C80.4661 38.24 79.8901 38.96 79.3861 40.76V53H76.2901V35.72H79.1701L79.2781 38.204H79.4221C80.1421 36.332 81.2941 35.504 83.0221 35.504C84.8581 35.504 86.2621 36.512 86.7301 38.42C87.7021 36.152 89.0701 35.504 90.6901 35.504C93.0661 35.504 94.7221 37.124 94.7221 40.112V53Z" fill="#424242"/>
</svg>
